<?xml version="1.0" encoding="UTF-8"?>
<svg id="Layer_1" xmlns="http://www.w3.org/2000/svg" version="1.1" viewBox="0 0 400.9 104">
  <!-- Generator: Adobe Illustrator 29.1.0, SVG Export Plug-In . SVG Version: 2.1.0 Build 142)  -->
  <defs>
    <style>
      .st0 {
        fill: #fff;
      }

      .st1 {
        fill: #0ab8cb;
      }
    </style>
  </defs>
  <polygon class="st1" points="17.4 29.3 0 16 17.4 16 17.4 29.3"/>
  <path class="st0" d="M82,16h28.1v56.1h-13.4v-4.1c-4.4,2.8-9.3,4.1-14.7,4.1-7.7,0-14.3-2.7-19.8-8.2-5.5-5.5-8.2-12.1-8.2-19.8s1.4-10.3,4.1-14.7c1.2-1.9,2.5-3.6,4.1-5.2,5.5-5.5,12.1-8.2,19.8-8.2M96.7,44.1v-14.7h-14.7c-4,0-7.5,1.4-10.4,4.2-2.8,2.8-4.2,6.2-4.3,10.5.1,4.1,1.6,7.6,4.3,10.4,2.8,2.8,6.2,4.2,10.4,4.3,4.2-.1,7.7-1.6,10.5-4.3,2.8-2.9,4.2-6.3,4.2-10.4"/>
  <path class="st0" d="M129.8,20.1c4.4-2.8,9.3-4.1,14.7-4.1h9.4v4.1c0,2.5-.9,4.7-2.8,6.6-1.8,1.8-4.1,2.8-6.7,2.8-4,0-7.5,1.4-10.4,4.2-2.9,2.9-4.3,6.4-4.3,10.5v28h-13.3v-28c0-5.1,1.2-9.7,3.6-13.9,2.4-4.2,5.6-7.5,9.7-10.1"/>
  <path class="st0" d="M376.8,20.1c4.4-2.8,9.3-4.1,14.7-4.1h9.4v4.1c0,2.5-.9,4.7-2.8,6.6-1.8,1.8-4.1,2.8-6.7,2.8-4,0-7.5,1.4-10.4,4.2-2.9,2.9-4.3,6.4-4.3,10.5v28h-13.3v-28c0-5.1,1.2-9.7,3.6-13.9,2.4-4.2,5.6-7.5,9.7-10.1"/>
  <path class="st0" d="M193.5,16h-14.7c-7.7,0-14.3,2.7-19.8,8.2s-2.9,3.3-4.1,5.2c-2.8,4.4-4.1,9.3-4.1,14.7,0,7.7,2.7,14.3,8.2,19.8,5.5,5.5,12.1,8.2,19.8,8.2s10.3-1.4,14.7-4.1v4.1h0v4.1c0,4-1.4,7.5-4.3,10.4-2.9,2.9-6.3,4.3-10.4,4.3s-6.3-1-8.9-3c-2.6-2-4.3-4.6-5.2-7.7h-13.6c1.2,7,4.3,12.7,9.3,17.1,5.2,4.6,11.4,6.9,18.4,6.9s12.2-1.9,17.1-5.8c1-.7,1.9-1.6,2.8-2.4,5.5-5.5,8.2-12.1,8.2-19.8V16h-13.4ZM189.2,54.4c-2.8,2.8-6.2,4.2-10.5,4.3-4.1-.1-7.6-1.6-10.4-4.3-2.8-2.8-4.2-6.2-4.3-10.4.1-4.2,1.6-7.7,4.3-10.5,2.9-2.8,6.3-4.2,10.4-4.2h14.7v14.7c0,4-1.4,7.5-4.2,10.4Z"/>
  <path class="st0" d="M263.6,29.1c-2.3-4-5.4-7.2-9.3-9.6-4-2.3-8.5-3.5-13.7-3.5s-10,1.2-14.3,3.7c-4.3,2.5-7.7,5.8-10.2,10-2.5,4.2-3.7,9-3.7,14.3s1.3,10.2,3.8,14.5c2.6,4.2,6,7.5,10.4,10,4.4,2.4,9.4,3.6,15,3.6s8.4-.8,12.2-2.3c3.7-1.6,6.9-3.9,9.5-6.9l-8.6-8.6c-1.6,1.9-3.6,3.2-5.8,4.2-2.2.9-4.7,1.4-7.5,1.4s-5.7-.6-8-1.9c-2.3-1.3-4.1-3.2-5.3-5.6-.5-1-.8-2-1.1-3.1h39.2c.3-1.4.5-2.5.6-3.5s.2-2,.2-2.9c0-5.1-1.1-9.7-3.4-13.7ZM232.9,30.1c2.2-1.3,4.7-1.9,7.6-1.9s5.1.6,7,1.7c1.9,1.2,3.3,2.8,4.3,5,.5,1,.9,2.2,1.1,3.5h-26c.3-.9.6-1.9,1-2.7,1.1-2.3,2.8-4.2,4.9-5.5Z"/>
  <path class="st0" d="M355.6,29.1c-2.3-4-5.4-7.2-9.3-9.6-4-2.3-8.5-3.5-13.7-3.5s-10,1.2-14.3,3.7c-4.3,2.5-7.7,5.8-10.2,10-2.5,4.2-3.7,9-3.7,14.3s1.3,10.2,3.8,14.5c2.6,4.2,6,7.5,10.4,10,4.4,2.4,9.4,3.6,15,3.6s8.4-.8,12.2-2.3c3.7-1.6,6.9-3.9,9.5-6.9l-8.6-8.6c-1.6,1.9-3.6,3.2-5.8,4.2-2.2.9-4.7,1.4-7.5,1.4s-5.7-.6-8-1.9c-2.3-1.3-4.1-3.2-5.3-5.6-.5-1-.8-2-1.1-3.1h39.2c.3-1.4.5-2.5.6-3.5s.2-2,.2-2.9c0-5.1-1.1-9.7-3.4-13.7ZM324.9,30.1c2.2-1.3,4.7-1.9,7.6-1.9s5.1.6,7,1.7c1.9,1.2,3.3,2.8,4.3,5,.5,1,.9,2.2,1.1,3.5h-26c.3-.9.6-1.9,1-2.7,1.1-2.3,2.8-4.2,4.9-5.5Z"/>
  <path class="st0" d="M49.4,58.7c-4,0-7.5-1.4-10.4-4.3-2.9-2.9-4.3-6.3-4.3-10.4v-14.7h0c0,0,17,0,17,0v-13.3h-17V0h-13.3v44.1c0,5,1.2,9.6,3.6,13.8,2.4,4.2,5.6,7.5,9.7,10.1,4.4,2.8,9.3,4.1,14.7,4.1h3.4v-13.4c-.5,0-2.9,0-3.4,0Z"/>
  <path class="st0" d="M299.5,58.7c-4,0-7.5-1.4-10.4-4.3-2.9-2.9-4.3-6.3-4.3-10.4v-14.7h0c0,0,17,0,17,0v-13.3h-17V0h-13.3v44.1c0,5,1.2,9.6,3.6,13.8,2.4,4.2,5.6,7.5,9.7,10.1,4.4,2.8,9.3,4.1,14.7,4.1h3.4v-13.4c-.5,0-2.9,0-3.4,0Z"/>
</svg>